<svg xmlns="http://www.w3.org/2000/svg" width="600" height="400" viewBox="0 0 600 400">
  <defs>
    <linearGradient id="bg7" x1="0" y1="0" x2="1" y2="1">
      <stop offset="0" stop-color="#166534"/><stop offset="1" stop-color="#15803D"/>
    </linearGradient>
  </defs>
  <rect width="600" height="400" fill="url(#bg7)"/>
  <g stroke="#FFFFFF" stroke-width="4" fill="#FFFFFF" fill-opacity="0.12">
    <rect x="230" y="110" width="140" height="90" rx="4"/>
    <line x1="230" y1="140" x2="370" y2="140"/><line x1="230" y1="170" x2="370" y2="170"/>
    <line x1="277" y1="110" x2="277" y2="200"/><line x1="323" y1="110" x2="323" y2="200"/>
  </g>
  <circle cx="300" cy="70" r="16" fill="#FFFFFF"/>
  <g stroke="#FFFFFF" stroke-width="4" stroke-linecap="round">
    <line x1="300" y1="38" x2="300" y2="48"/><line x1="300" y1="92" x2="300" y2="102"/>
    <line x1="268" y1="70" x2="278" y2="70"/><line x1="322" y1="70" x2="332" y2="70"/>
    <line x1="278" y1="48" x2="285" y2="55"/><line x1="315" y1="85" x2="322" y2="92"/>
    <line x1="322" y1="48" x2="315" y2="55"/><line x1="285" y1="85" x2="278" y2="92"/>
  </g>
  <text x="300" y="255" text-anchor="middle" font-family="Arial" font-size="28" 
        font-weight="bold" fill="#FFFFFF">Energia Fotovoltaica</text>
  <text x="300" y="285" text-anchor="middle" font-family="Arial" font-size="16" 
        fill="#BBF7D0">Sistemas de energia solar</text>
</svg>
